<mxfile host="app.diagrams.net" agent="Mozilla/5.0 (Windows NT 10.0; Win64; x64) AppleWebKit/537.36 (KHTML, like Gecko) Chrome/127.0.0.0 Safari/537.36 Edg/127.0.0.0" version="24.7.6">
  <diagram name="第 1 页" id="OYajzJ8WG88uhbxSJBp5">
    <mxGraphModel dx="1426" dy="783" grid="1" gridSize="10" guides="1" tooltips="1" connect="1" arrows="1" fold="1" page="1" pageScale="1" pageWidth="827" pageHeight="1169" math="0" shadow="0">
      <root>
        <mxCell id="0" />
        <mxCell id="1" parent="0" />
        <mxCell id="3s0f6Iqx2QGQnJLX9i-5-9" style="edgeStyle=orthogonalEdgeStyle;rounded=0;orthogonalLoop=1;jettySize=auto;html=1;exitX=0.5;exitY=1;exitDx=0;exitDy=0;entryX=0.5;entryY=0;entryDx=0;entryDy=0;" edge="1" parent="1" source="3s0f6Iqx2QGQnJLX9i-5-3" target="3s0f6Iqx2QGQnJLX9i-5-4">
          <mxGeometry relative="1" as="geometry" />
        </mxCell>
        <mxCell id="3s0f6Iqx2QGQnJLX9i-5-10" style="edgeStyle=orthogonalEdgeStyle;rounded=0;orthogonalLoop=1;jettySize=auto;html=1;exitX=0.5;exitY=1;exitDx=0;exitDy=0;entryX=0.5;entryY=0;entryDx=0;entryDy=0;" edge="1" parent="1" source="3s0f6Iqx2QGQnJLX9i-5-3" target="3s0f6Iqx2QGQnJLX9i-5-7">
          <mxGeometry relative="1" as="geometry" />
        </mxCell>
        <mxCell id="3s0f6Iqx2QGQnJLX9i-5-3" value="MSPM0G3507单片机" style="rounded=1;whiteSpace=wrap;html=1;" vertex="1" parent="1">
          <mxGeometry x="390" y="350" width="140" height="90" as="geometry" />
        </mxCell>
        <mxCell id="3s0f6Iqx2QGQnJLX9i-5-11" style="edgeStyle=orthogonalEdgeStyle;rounded=0;orthogonalLoop=1;jettySize=auto;html=1;exitX=0.5;exitY=1;exitDx=0;exitDy=0;entryX=0.5;entryY=0;entryDx=0;entryDy=0;" edge="1" parent="1" source="3s0f6Iqx2QGQnJLX9i-5-4" target="3s0f6Iqx2QGQnJLX9i-5-5">
          <mxGeometry relative="1" as="geometry" />
        </mxCell>
        <mxCell id="3s0f6Iqx2QGQnJLX9i-5-4" value="电源核心板" style="rounded=1;whiteSpace=wrap;html=1;" vertex="1" parent="1">
          <mxGeometry x="130" y="510" width="110" height="65" as="geometry" />
        </mxCell>
        <mxCell id="3s0f6Iqx2QGQnJLX9i-5-5" value="驱动马达" style="rounded=1;whiteSpace=wrap;html=1;" vertex="1" parent="1">
          <mxGeometry x="130" y="630" width="110" height="60" as="geometry" />
        </mxCell>
        <mxCell id="3s0f6Iqx2QGQnJLX9i-5-6" value="灰度传感器" style="rounded=1;whiteSpace=wrap;html=1;" vertex="1" parent="1">
          <mxGeometry x="180" y="405" width="110" height="60" as="geometry" />
        </mxCell>
        <mxCell id="3s0f6Iqx2QGQnJLX9i-5-7" value="串口屏幕" style="rounded=1;whiteSpace=wrap;html=1;" vertex="1" parent="1">
          <mxGeometry x="400" y="630" width="120" height="60" as="geometry" />
        </mxCell>
        <mxCell id="3s0f6Iqx2QGQnJLX9i-5-12" value="MPU6050陀螺仪" style="rounded=1;whiteSpace=wrap;html=1;" vertex="1" parent="1">
          <mxGeometry x="180" y="320" width="110" height="60" as="geometry" />
        </mxCell>
        <mxCell id="3s0f6Iqx2QGQnJLX9i-5-17" style="edgeStyle=orthogonalEdgeStyle;rounded=0;orthogonalLoop=1;jettySize=auto;html=1;exitX=1;exitY=0.75;exitDx=0;exitDy=0;entryX=-0.021;entryY=0.189;entryDx=0;entryDy=0;entryPerimeter=0;" edge="1" parent="1" source="3s0f6Iqx2QGQnJLX9i-5-12" target="3s0f6Iqx2QGQnJLX9i-5-3">
          <mxGeometry relative="1" as="geometry" />
        </mxCell>
        <mxCell id="3s0f6Iqx2QGQnJLX9i-5-18" style="edgeStyle=orthogonalEdgeStyle;rounded=0;orthogonalLoop=1;jettySize=auto;html=1;exitX=1;exitY=0.25;exitDx=0;exitDy=0;entryX=-0.021;entryY=0.167;entryDx=0;entryDy=0;entryPerimeter=0;" edge="1" parent="1" source="3s0f6Iqx2QGQnJLX9i-5-6" target="3s0f6Iqx2QGQnJLX9i-5-3">
          <mxGeometry relative="1" as="geometry" />
        </mxCell>
      </root>
    </mxGraphModel>
  </diagram>
</mxfile>
